<?xml version="1.0" encoding="UTF-8"?>
<svg id="Layer_1" xmlns="http://www.w3.org/2000/svg" version="1.1" xmlns:xlink="http://www.w3.org/1999/xlink" viewBox="0 0 127 42">
  <!-- Generator: Adobe Illustrator 29.4.0, SVG Export Plug-In . SVG Version: 2.1.0 Build 152)  -->
  <defs>
    <style>
      .st0, .st1 {
        fill: #fff;
      }

      .st1 {
        fill-rule: evenodd;
      }

      .st2 {
        fill: none;
      }

      .st3 {
        clip-path: url(#clippath);
      }
    </style>
    <clipPath id="clippath">
      <rect class="st2" y="0" width="127" height="42"/>
    </clipPath>
  </defs>
  <g class="st3">
    <g>
      <path class="st0" d="M57.03,26.18l-2.16,4.08h-13.43l8.75-16.77h-7.72l2.16-4.11h13.41l-8.72,16.8h7.72Z"/>
      <path class="st0" d="M64.82,17.76h6.89v4.11h-6.89v4.31h6.89v4.08h-11.95V9.38h11.95v4.11h-6.89v4.27Z"/>
      <path class="st0" d="M81.34,9.38c2.67,0,4.2.28,5.31,1,1.44.88,2.32,2.67,2.32,4.66,0,1.46-.46,2.69-1.42,3.62-.6.63-1.07.9-2.18,1.23,1.28.28,1.86.56,2.51,1.18.93.88,1.42,2.09,1.42,3.62,0,1.95-.79,3.67-2.13,4.57-1.04.7-2.27.97-4.41.97h-8.54V9.38h7.12ZM79.27,18.03h1.25c2.32,0,3.29-.72,3.29-2.44s-.97-2.41-3.34-2.41h-1.18v4.85h-.02ZM79.27,26.64h1.86c2.13,0,3.04-.72,3.04-2.41,0-1-.37-1.72-1.14-2.13-.56-.3-1.07-.37-2.6-.37h-1.16v4.92Z"/>
      <path class="st0" d="M96.32,30.26h-5.08V9.38h6.75c2.76,0,4.76.51,6.12,1.55,1.44,1.14,2.25,2.99,2.25,5.29,0,3.2-1.34,5.29-4.04,6.36l4.59,7.66h-6.08l-4.57-8.07v8.1h.05ZM97.95,19.33c2.06,0,3.32-1.07,3.32-2.88s-1.23-2.9-2.99-2.9h-1.95v5.8h1.62v-.02Z"/>
      <path class="st0" d="M121.63,30.26h5.5l-6.84-20.88h-6.45l-6.89,20.88h5.34l1.3-4.11h6.77l1.28,4.11ZM114.88,22.05l2.09-6.68,2.09,6.68h-4.18Z"/>
      <path class="st1" d="M15.78,12.49h7.14l-2.92-2.93h-.01s-3.76-.01-3.76-.01c2.45-.23,4.37-2.3,4.37-4.83C20.61,2.04,18.45-.13,15.78-.13v9.69L7.76,1.53c-.42.22-.83.46-1.23.72-.44.29-.86.6-1.27.93l7.6,7.6v16.68l5.86,5.89v-4.16l-2.93-2.94v-13.75ZM24.58,26.75h2.93v-5.39l-2.93-2.95v8.33ZM18.7,26.73l.02-14.22,2.93,2.96h0s4.2,0,4.2,0l2.93,2.95h-4.2l-2.93-2.94v11.26h-2.95ZM9.92,24.52v.17C9.59,24.35-.13,14.43-.13,14.43c.01-1.27.19-2.5.5-3.67l6.62,6.65v-4.16L1.53,7.77c.47-.89,1.02-1.73,1.65-2.5l6.74,6.76v12.49ZM-.08,18.64v4.16l18.8,18.87v-4.16L-.08,18.64ZM30.45,23.03h2.93l3.8,3.72c0,2.68-2.16,4.85-4.83,4.85s-4.83-2.17-4.83-4.85h2.93v-3.72Z"/>
    </g>
  </g>
</svg>